<svg width="26" height="24" viewBox="0 0 26 24" fill="none" xmlns="http://www.w3.org/2000/svg">
<path d="M5.93014 4.92C5.35414 4.08 4.85014 3.42 4.41814 2.94C3.98614 2.436 3.42214 1.992 2.72614 1.608C2.03014 1.224 1.17814 1.008 0.170141 0.959998V0.239999H4.49014C5.54614 0.239999 6.43414 0.587999 7.15414 1.284C7.87414 1.956 8.66614 2.928 9.53014 4.2L13.1301 9.6L20.3301 0.239999H22.1301L14.0301 10.86L19.7901 19.32C20.5341 20.424 21.3261 21.348 22.1661 22.092C23.0301 22.812 23.9781 23.208 25.0101 23.28V24H21.2301C20.1981 24 19.2861 23.64 18.4941 22.92C17.7021 22.176 16.9341 21.216 16.1901 20.04L11.8701 13.56L3.77014 24H1.97014L10.9701 12.3L5.93014 4.92Z" fill="#EEEAE2"/>
</svg>
