<svg width="1014" height="1400" viewBox="0 0 1014 1400" fill="none" xmlns="http://www.w3.org/2000/svg">
<path d="M256 630L824 1298C852 1324.67 880 1344.67 908 1358C937.333 1371.33 972.667 1378.67 1014 1380V1400H928C914.667 1400 895.333 1399.33 870 1398C846 1395.33 819.333 1390.67 790 1384C762 1376 733.333 1364.67 704 1350C676 1334 650.667 1312.67 628 1286C628 1286 616 1272 592 1244C569.333 1216 539.333 1180 502 1136C466 1092 427.333 1045.33 386 996C346 945.333 307.333 898 270 854C234 810 204 774 180 746C157.333 718 146 704 146 704L256 630ZM834 14L236 704H146L696 14H834ZM972 -9.53674e-05V17.9999H964C920 17.9999 878.667 26.6666 840 43.9999C802.667 61.3333 770.667 85.3333 744 116L618 112C635.333 89.3333 638 67.9999 626 47.9999C615.333 27.9999 596.667 17.9999 570 17.9999H550V-9.53674e-05H964H972ZM82 -9.53674e-05V1400H-48V-9.53674e-05H82ZM-42 1254V1400H-202V1380C-202 1380 -198 1380 -190 1380C-180.667 1380 -176 1380 -176 1380C-141.333 1380 -112 1368 -88 1344C-62.6667 1318.67 -49.3333 1288.67 -48 1254H-42ZM-42 146H-48C-49.3333 111.333 -62.6667 81.9999 -88 58C-112 32.6666 -141.333 19.9999 -176 19.9999C-176 19.9999 -180.667 19.9999 -190 19.9999C-198 19.9999 -202 19.9999 -202 19.9999V-9.53674e-05H-42V146ZM76 1254H82C83.3334 1288.67 96 1318.67 120 1344C145.333 1368 175.333 1380 210 1380C210 1380 214 1380 222 1380C230 1380 234.667 1380 236 1380V1400H76V1254ZM76 146V-9.53674e-05H236V19.9999C234.667 19.9999 230 19.9999 222 19.9999C214 19.9999 210 19.9999 210 19.9999C175.333 19.9999 145.333 32.6666 120 58C96 81.9999 83.3334 111.333 82 146H76Z" fill="#E3DED4"/>
</svg>
