<svg width="27" height="27" viewBox="0 0 27 27" fill="none" xmlns="http://www.w3.org/2000/svg">
<path d="M13.5 27C6.04336 27 0 20.9566 0 13.5C0 6.04336 6.04336 0 13.5 0C20.9566 0 27 6.04336 27 13.5C27 20.9566 20.9566 27 13.5 27ZM12.2344 13.5C12.2344 13.9219 12.4453 14.3174 12.7986 14.5072L17.8611 17.8822C18.4412 18.3146 19.227 18.1564 19.5697 17.5764C20.0021 16.9963 19.8439 16.2105 19.2639 15.8203L14.7656 12.825V6.32812C14.7656 5.62676 14.2014 5.0625 13.4525 5.0625C12.7986 5.0625 12.1869 5.62676 12.1869 6.32812L12.2344 13.5Z" fill="#AB8A49"/>
</svg>
